<svg id="Layer_1" data-name="Layer 1" xmlns="http://www.w3.org/2000/svg" viewBox="0 0 116 100"><defs><style>.cls-1{fill:#5c9ead;}</style></defs><title>favicon</title><path class="cls-1" d="M32.43,26.72S9.2,56.59,5.88,88.11l12,4.56S20.4,73.59,26.2,61.15c0,0,14.11,12.44,19.08,36.5H71s1.66-18.25,18.26-36.5c0,0,6.63,16.59,8.29,31.52l11.62-4.14s-5.81-39.83-25.72-61.4l-10,7.47,10,14.93S62.71,70.27,61.88,86H54.41S51.09,65.3,32,49.53a132.1,132.1,0,0,1,9.54-15.34Z"/><path class="cls-1" d="M70.59,30.87l8.29-8.3L57.31,1,35.74,22.57,61.46,48.29l-2.9,4.56L46.11,38.75l-6.63,10S51.09,61.15,52.75,68.62h10S65.2,58.66,76,48.7L50.26,21.33l6.22-6.23Z"/></svg>