<?xml version="1.0" encoding="utf-8"?>
<!-- Generator: Adobe Illustrator 24.0.1, SVG Export Plug-In . SVG Version: 6.00 Build 0)  -->
<svg version="1.1" id="Layer_1" xmlns="http://www.w3.org/2000/svg" xmlns:xlink="http://www.w3.org/1999/xlink" x="0px" y="0px"
	 viewBox="0 0 110 21" style="enable-background:new 0 0 110 21;" xml:space="preserve">
<style type="text/css">
	.st0{enable-background:new    ;}
	.st1{fill:#FFFFFF;}
</style>
<title>logo</title>
<g class="st0">
	<path class="st1" d="M12.4,5.3c-0.9-1.4-2.3-1.6-3.7-1.6C7.3,3.7,5,4.2,5,6.1C5,7.7,6.7,8,8.7,8.4c2.3,0.4,4.7,0.9,4.7,3.5
		c0,2.7-2.8,3.4-4.8,3.4c-1.9,0-4-0.8-4.9-2.6l0.8-0.4c0.7,1.5,2.6,2.2,4.1,2.2s3.8-0.4,3.8-2.5c0-1.8-2-2.2-4-2.6
		C6.4,8.8,4.1,8.4,4.1,6.2C4.1,3.6,6.7,2.8,8.7,2.8c1.7,0,3.2,0.3,4.4,2L12.4,5.3z"/>
</g>
<g class="st0">
	<path class="st1" d="M24,6.5c0,2.8,0,5.7,0,8.5h-0.8v-1.8c-0.8,1.3-2.1,1.9-3.5,1.9c-2.4,0-4.3-1.8-4.3-4.4c0-2.6,1.9-4.4,4.3-4.4
		c1.4,0,2.8,0.6,3.5,2V6.5H24z M16.2,10.8c0,2.1,1.6,3.6,3.5,3.6c4.7,0,4.7-7.1,0-7.1C17.8,7.2,16.2,8.7,16.2,10.8z"/>
	<path class="st1" d="M38.9,15V10c0-1.6-1.1-2.8-2.7-2.8c-1.6,0-2.7,1.2-2.7,2.8v5h-0.8v-5c0-1.6-1.1-2.8-2.7-2.8
		c-1.6,0-2.7,1.2-2.7,2.8v5h-0.8V6.5h0.8l0,1.4c0.6-1.1,1.7-1.6,2.8-1.6c1.3,0,2.7,0.6,3.2,2.1c0.5-1.4,1.8-2.1,3.2-2.1
		c2.1,0,3.6,1.5,3.6,3.6V15H38.9z"/>
</g>
<g class="st0">
	<path class="st1" d="M57.6,4.3L53,11.4h-0.3L48,4.3V15h-0.9V3c0.4,0,0.7,0,1.1,0l4.6,7l4.6-7h1.1V15h-0.9V4.3z"/>
</g>
<g class="st0">
	<path class="st1" d="M69.3,6.5c0,2.8,0,5.7,0,8.5h-0.8v-1.8c-0.8,1.3-2.1,1.9-3.5,1.9c-2.4,0-4.3-1.8-4.3-4.4
		c0-2.6,1.9-4.4,4.3-4.4c1.4,0,2.8,0.6,3.5,2V6.5H69.3z M61.5,10.8c0,2.1,1.5,3.6,3.5,3.6c4.7,0,4.7-7.1,0-7.1
		C63.1,7.2,61.5,8.7,61.5,10.8z"/>
	<path class="st1" d="M78.5,6.2L79,6.7l-0.8,1c0.6,0.7,1.1,1.5,1.1,2.9c0,1.5-0.9,3-2.3,3.6c1.5,0.5,2.3,1.6,2.3,3
		c0,2.3-1.8,3.4-4,3.4s-4-1.2-4-3.4H72c0,1.7,1.5,2.6,3.2,2.6c1.7,0,3.2-0.8,3.2-2.6c0-1.8-1.6-2.5-3.2-2.5c-2.5,0-4-1.8-4-4.1
		c0-2.7,1.8-4.2,4-4.2c0.9,0,1.8,0.3,2.4,0.8L78.5,6.2z M72.1,10.5c0,1.8,1.2,3.3,3.2,3.3c1.8,0,3.2-1.5,3.2-3.3
		c0-2.2-1.4-3.3-3.2-3.3C73.5,7.2,72.1,8.3,72.1,10.5z"/>
	<path class="st1" d="M89.2,6.5c0,2.8,0,5.7,0,8.5h-0.8v-1.8c-0.8,1.3-2.1,1.9-3.5,1.9c-2.4,0-4.3-1.8-4.3-4.4
		c0-2.6,1.9-4.4,4.3-4.4c1.4,0,2.8,0.6,3.5,2V6.5H89.2z M81.4,10.8c0,2.1,1.6,3.6,3.5,3.6c4.7,0,4.7-7.1,0-7.1
		C82.9,7.2,81.4,8.7,81.4,10.8z"/>
</g>
<g class="st0">
	<path class="st1" d="M92.3,15V7.3h-1.7V6.6h1.7V5.9c0-1.7,0.7-2.9,2.5-2.9c0.6,0,1.2,0.2,1.7,0.6l-0.4,0.6
		c-0.5-0.3-0.8-0.4-1.3-0.4c-1.1,0-1.7,0.7-1.7,2.1v0.8H96v0.7h-2.8V15H92.3z"/>
</g>
<g class="st0">
	<path class="st1" d="M104.5,15v-1.5c-0.7,1.2-1.8,1.7-3,1.7c-2.3,0-3.8-1.4-3.8-3.8V6.5h0.8v4.9c0,1.9,1.2,3,3,2.9
		c1.8,0,3-1.3,3-3.1V6.5h0.8V15H104.5z"/>
</g>
</svg>
